<svg width="265" height="100" viewBox="0 0 265 100" fill="none" xmlns="http://www.w3.org/2000/svg">
<path d="M111.925 47.293C110.577 47.293 109.454 47.166 108.556 46.9121C107.657 46.6582 106.935 46.3311 106.388 45.9307C105.851 45.5303 105.465 45.0811 105.23 44.583C105.006 44.085 104.894 43.5918 104.894 43.1035C104.894 42.5859 104.986 42.1514 105.172 41.7998C105.367 41.4482 105.621 41.1602 105.934 40.9355C106.256 40.7109 106.617 40.5498 107.018 40.4521C107.428 40.3545 107.853 40.3057 108.292 40.3057C108.292 41.165 108.395 41.9219 108.6 42.5762C108.805 43.2207 109.088 43.7627 109.449 44.2021C109.811 44.6318 110.24 44.959 110.738 45.1836C111.246 45.3984 111.798 45.5059 112.394 45.5059C112.979 45.5059 113.502 45.4229 113.961 45.2568C114.42 45.0908 114.811 44.8613 115.133 44.5684C115.455 44.2754 115.699 43.9336 115.865 43.543C116.031 43.1426 116.114 42.7129 116.114 42.2539C116.114 41.7461 116.012 41.2969 115.807 40.9062C115.602 40.5059 115.289 40.1396 114.869 39.8076C114.459 39.4658 113.937 39.1436 113.302 38.8408C112.677 38.5283 111.944 38.1963 111.104 37.8447C110.06 37.415 109.176 36.9756 108.453 36.5264C107.74 36.0674 107.164 35.5742 106.725 35.0469C106.285 34.5195 105.968 33.9482 105.772 33.333C105.587 32.7178 105.494 32.0439 105.494 31.3115C105.494 30.3936 105.68 29.5635 106.051 28.8213C106.422 28.0791 106.935 27.4443 107.589 26.917C108.243 26.3896 109.02 25.9844 109.918 25.7012C110.816 25.418 111.793 25.2764 112.848 25.2764C113.951 25.2764 114.903 25.3691 115.704 25.5547C116.505 25.7305 117.164 25.9746 117.682 26.2871C118.209 26.5996 118.6 26.9707 118.854 27.4004C119.107 27.8203 119.234 28.2744 119.234 28.7627C119.234 29.1143 119.156 29.4414 119 29.7441C118.854 30.0469 118.624 30.3105 118.312 30.5352C118.009 30.7598 117.623 30.9355 117.154 31.0625C116.695 31.1895 116.158 31.2529 115.543 31.2529C115.543 30.833 115.484 30.3838 115.367 29.9053C115.26 29.417 115.079 28.9678 114.825 28.5576C114.571 28.1377 114.239 27.791 113.829 27.5176C113.429 27.2441 112.94 27.1074 112.364 27.1074C111.964 27.1074 111.583 27.166 111.222 27.2832C110.86 27.4004 110.543 27.5762 110.27 27.8105C110.006 28.0449 109.796 28.3379 109.64 28.6895C109.483 29.0312 109.405 29.4268 109.405 29.876C109.405 30.2959 109.474 30.6914 109.61 31.0625C109.747 31.4336 109.996 31.7998 110.357 32.1611C110.729 32.5127 111.231 32.8691 111.866 33.2305C112.511 33.582 113.341 33.9629 114.356 34.373C115.382 34.793 116.256 35.2227 116.979 35.6621C117.701 36.1016 118.292 36.5752 118.751 37.083C119.22 37.5811 119.557 38.1328 119.762 38.7383C119.977 39.334 120.084 39.998 120.084 40.7305C120.084 41.6973 119.894 42.5859 119.513 43.3965C119.132 44.1973 118.585 44.8857 117.872 45.4619C117.159 46.0381 116.3 46.4873 115.294 46.8096C114.298 47.1318 113.175 47.293 111.925 47.293ZM147.865 47H147.44C146.346 47 145.429 46.9756 144.686 46.9268C143.944 46.8779 143.304 46.7656 142.767 46.5898C142.23 46.4141 141.766 46.1504 141.376 45.7988C140.985 45.4375 140.595 44.9492 140.204 44.334L137.538 40.1299L136.337 41.0234V43.4551C136.337 43.8848 136.405 44.2266 136.542 44.4805C136.688 44.7344 136.864 44.9297 137.069 45.0664C137.284 45.2031 137.518 45.2959 137.772 45.3447C138.026 45.3838 138.261 45.4033 138.475 45.4033H138.827V47H129.291V45.4033H129.642C129.867 45.4033 130.101 45.3838 130.346 45.3447C130.599 45.2959 130.829 45.2031 131.034 45.0664C131.249 44.9297 131.425 44.7344 131.561 44.4805C131.708 44.2266 131.781 43.8848 131.781 43.4551V27.6201C131.781 27.2197 131.708 26.9023 131.561 26.668C131.425 26.4238 131.249 26.2383 131.034 26.1113C130.819 25.9746 130.585 25.8867 130.331 25.8477C130.087 25.8086 129.857 25.7891 129.642 25.7891H129.291V24.207H136.337V35.7793C136.337 36.0527 136.327 36.3701 136.307 36.7314C136.298 37.083 136.283 37.4199 136.263 37.7422C136.234 38.123 136.21 38.5088 136.19 38.8994L139.97 34.666C140.302 34.2949 140.516 34.002 140.614 33.7871C140.721 33.5625 140.775 33.377 140.775 33.2305C140.775 32.9766 140.638 32.7812 140.365 32.6445C140.101 32.498 139.721 32.4248 139.222 32.4248V30.916H146.781V32.4248C146.088 32.4248 145.404 32.6299 144.73 33.04C144.066 33.4404 143.339 34.085 142.548 34.9736L140.658 37.127L144.642 43.0742C145.17 43.8652 145.702 44.4512 146.239 44.832C146.776 45.2129 147.284 45.4033 147.763 45.4033H147.865V47ZM172.453 30.916V32.5127C172.15 32.5127 171.881 32.5469 171.647 32.6152C171.422 32.6836 171.217 32.8057 171.032 32.9814C170.846 33.1475 170.675 33.3721 170.519 33.6553C170.363 33.9287 170.207 34.2754 170.05 34.6953C169.699 35.6914 169.333 36.707 168.952 37.7422C168.571 38.7773 168.185 39.8174 167.795 40.8623C167.414 41.8975 167.028 42.9326 166.637 43.9678C166.256 44.9932 165.885 46.0039 165.524 47C165.172 47.9668 164.84 48.8164 164.528 49.5488C164.215 50.2812 163.883 50.916 163.532 51.4531C163.19 51.9902 162.809 52.4346 162.389 52.7861C161.969 53.1377 161.481 53.416 160.924 53.6211C160.368 53.8359 159.718 53.9873 158.976 54.0752C158.244 54.1631 157.384 54.207 156.398 54.207H155.885V52.4639C156.93 52.4639 157.819 52.3369 158.551 52.083C159.284 51.8291 159.904 51.4678 160.412 50.999C160.92 50.5303 161.335 49.9688 161.657 49.3145C161.989 48.6602 162.277 47.9375 162.521 47.1465L157.116 33.9482C156.999 33.665 156.867 33.4404 156.72 33.2744C156.574 33.1084 156.418 32.9814 156.252 32.8936C156.086 32.8057 155.905 32.752 155.71 32.7324C155.514 32.7031 155.304 32.6885 155.08 32.6885V30.916H163.634V32.5127C163.048 32.5127 162.585 32.5908 162.243 32.7471C161.911 32.8936 161.745 33.1865 161.745 33.626C161.745 33.792 161.779 33.9922 161.847 34.2266C161.916 34.4512 161.979 34.6367 162.038 34.7832C162.213 35.2031 162.394 35.6621 162.58 36.1602C162.775 36.6484 162.961 37.1416 163.136 37.6396C163.322 38.1279 163.498 38.6016 163.664 39.0605C163.83 39.5195 163.976 39.9248 164.103 40.2764C164.25 40.6572 164.372 41.0039 164.469 41.3164C164.567 41.6191 164.645 41.8975 164.704 42.1514C164.772 42.3955 164.826 42.625 164.865 42.8398C164.904 43.0449 164.933 43.25 164.953 43.4551C164.972 43.25 165.011 43.0254 165.07 42.7812C165.129 42.5273 165.192 42.2881 165.26 42.0635C165.329 41.8291 165.397 41.624 165.465 41.4482C165.534 41.2627 165.583 41.1309 165.612 41.0527L167.589 35.1787C167.629 35.0811 167.663 34.9688 167.692 34.8418C167.731 34.7051 167.765 34.5684 167.795 34.4316C167.824 34.2949 167.843 34.1631 167.853 34.0361C167.873 33.9092 167.882 33.8018 167.882 33.7139C167.882 33.2549 167.692 32.9424 167.311 32.7764C166.93 32.6006 166.393 32.5127 165.7 32.5127V30.916H172.453ZM180.517 45.4033C180.742 45.4033 180.976 45.3838 181.22 45.3447C181.474 45.2959 181.704 45.2031 181.909 45.0664C182.123 44.9297 182.299 44.7344 182.436 44.4805C182.582 44.2266 182.656 43.8848 182.656 43.4551V27.6201C182.656 27.2197 182.582 26.9023 182.436 26.668C182.299 26.4238 182.123 26.2383 181.909 26.1113C181.694 25.9746 181.459 25.8867 181.205 25.8477C180.961 25.8086 180.732 25.7891 180.517 25.7891H180.165V24.207H187.211V43.4551C187.211 43.8848 187.28 44.2266 187.416 44.4805C187.563 44.7344 187.739 44.9297 187.944 45.0664C188.159 45.2031 188.393 45.2959 188.647 45.3447C188.901 45.3838 189.135 45.4033 189.35 45.4033H189.702V47H180.165V45.4033H180.517ZM203.435 42.5322C203.435 43.3916 203.571 44.0361 203.845 44.4658C204.118 44.8955 204.548 45.1104 205.134 45.1104C205.564 45.1104 205.949 45.0225 206.291 44.8467C206.643 44.6611 206.941 44.4023 207.185 44.0703C207.439 43.7383 207.629 43.3379 207.756 42.8691C207.893 42.3906 207.961 41.8584 207.961 41.2725V39.0166L206.613 39.1045C206.018 39.1338 205.515 39.2314 205.105 39.3975C204.695 39.5537 204.367 39.7734 204.123 40.0566C203.879 40.3398 203.703 40.6865 203.596 41.0967C203.488 41.5068 203.435 41.9854 203.435 42.5322ZM206.101 32.3662C205.72 32.3662 205.398 32.4492 205.134 32.6152C204.88 32.7715 204.675 32.9961 204.519 33.2891C204.363 33.5723 204.25 33.9141 204.182 34.3145C204.123 34.7051 204.094 35.1348 204.094 35.6035C202.746 35.6035 201.731 35.4521 201.047 35.1494C200.373 34.8467 200.036 34.3291 200.036 33.5967C200.036 33.0498 200.197 32.5811 200.52 32.1904C200.852 31.7998 201.296 31.4824 201.853 31.2383C202.419 30.9941 203.073 30.8184 203.816 30.7109C204.568 30.5938 205.368 30.5352 206.218 30.5352C207.273 30.5352 208.191 30.6279 208.972 30.8135C209.763 30.9893 210.417 31.2773 210.935 31.6777C211.462 32.0781 211.858 32.6055 212.121 33.2598C212.385 33.9043 212.517 34.6953 212.517 35.6328V43.2793C212.517 43.6895 212.546 44.0312 212.605 44.3047C212.673 44.5781 212.776 44.7979 212.912 44.9639C213.049 45.1201 213.235 45.2324 213.469 45.3008C213.703 45.3691 213.987 45.4033 214.319 45.4033H214.436V47H208.855L208.225 44.9346H207.961C207.629 45.335 207.317 45.6865 207.024 45.9893C206.731 46.2822 206.418 46.5264 206.086 46.7217C205.754 46.917 205.378 47.0586 204.958 47.1465C204.548 47.2441 204.06 47.293 203.493 47.293C202.829 47.293 202.209 47.1953 201.633 47C201.067 46.8047 200.569 46.5068 200.139 46.1064C199.719 45.6963 199.387 45.1885 199.143 44.583C198.899 43.9678 198.777 43.2451 198.777 42.415C198.777 40.7842 199.333 39.5781 200.446 38.7969C201.57 38.0156 203.254 37.5908 205.5 37.5225L207.961 37.4346V35.7793C207.961 35.2812 207.942 34.8223 207.903 34.4023C207.863 33.9824 207.78 33.6211 207.654 33.3184C207.527 33.0156 207.336 32.7812 207.082 32.6152C206.838 32.4492 206.511 32.3662 206.101 32.3662ZM233.237 47H223.218V45.4033H223.306C223.647 45.4033 223.96 45.3789 224.243 45.3301C224.526 45.2812 224.771 45.1836 224.976 45.0371C225.181 44.8809 225.337 44.6611 225.444 44.3779C225.562 44.0947 225.62 43.7188 225.62 43.25V34.5488C225.62 34.1094 225.566 33.7578 225.459 33.4941C225.361 33.2207 225.215 33.0107 225.02 32.8643C224.834 32.7178 224.609 32.625 224.346 32.5859C224.082 32.5371 223.784 32.5127 223.452 32.5127H223.364V30.916H229.429L230.029 33.2598H230.176C230.371 32.8105 230.586 32.4199 230.82 32.0879C231.055 31.7461 231.333 31.4629 231.655 31.2383C231.987 31.0137 232.373 30.8477 232.812 30.7402C233.262 30.623 233.794 30.5645 234.409 30.5645C235.591 30.5645 236.46 30.7744 237.017 31.1943C237.573 31.6045 237.852 32.2051 237.852 32.9961C237.852 33.9141 237.52 34.627 236.855 35.1348C236.191 35.6426 235.254 35.8965 234.043 35.8965C234.043 35.4863 234.019 35.125 233.97 34.8125C233.931 34.5 233.853 34.2412 233.735 34.0361C233.628 33.8311 233.477 33.6748 233.281 33.5674C233.096 33.46 232.861 33.4062 232.578 33.4062C232.227 33.4062 231.924 33.4941 231.67 33.6699C231.416 33.8457 231.201 34.0752 231.025 34.3584C230.85 34.6318 230.703 34.9443 230.586 35.2959C230.479 35.6475 230.391 36.0039 230.322 36.3652C230.264 36.7168 230.225 37.0537 230.205 37.376C230.186 37.6982 230.176 37.9766 230.176 38.2109V43.3965C230.176 43.8359 230.229 44.1924 230.337 44.4658C230.444 44.7295 230.591 44.9297 230.776 45.0664C230.962 45.2031 231.182 45.2959 231.436 45.3447C231.699 45.3838 231.978 45.4033 232.271 45.4033H233.237V47ZM264.607 47H264.182C263.089 47 262.171 46.9756 261.429 46.9268C260.686 46.8779 260.047 46.7656 259.51 46.5898C258.972 46.4141 258.509 46.1504 258.118 45.7988C257.727 45.4375 257.337 44.9492 256.946 44.334L254.28 40.1299L253.079 41.0234V43.4551C253.079 43.8848 253.147 44.2266 253.284 44.4805C253.43 44.7344 253.606 44.9297 253.811 45.0664C254.026 45.2031 254.261 45.2959 254.514 45.3447C254.768 45.3838 255.003 45.4033 255.218 45.4033H255.569V47H246.033V45.4033H246.385C246.609 45.4033 246.844 45.3838 247.088 45.3447C247.342 45.2959 247.571 45.2031 247.776 45.0664C247.991 44.9297 248.167 44.7344 248.304 44.4805C248.45 44.2266 248.523 43.8848 248.523 43.4551V27.6201C248.523 27.2197 248.45 26.9023 248.304 26.668C248.167 26.4238 247.991 26.2383 247.776 26.1113C247.561 25.9746 247.327 25.8867 247.073 25.8477C246.829 25.8086 246.599 25.7891 246.385 25.7891H246.033V24.207H253.079V35.7793C253.079 36.0527 253.069 36.3701 253.05 36.7314C253.04 37.083 253.025 37.4199 253.006 37.7422C252.976 38.123 252.952 38.5088 252.932 38.8994L256.712 34.666C257.044 34.2949 257.259 34.002 257.356 33.7871C257.464 33.5625 257.517 33.377 257.517 33.2305C257.517 32.9766 257.381 32.7812 257.107 32.6445C256.844 32.498 256.463 32.4248 255.965 32.4248V30.916H263.523V32.4248C262.83 32.4248 262.146 32.6299 261.472 33.04C260.808 33.4404 260.081 34.085 259.29 34.9736L257.4 37.127L261.385 43.0742C261.912 43.8652 262.444 44.4512 262.981 44.832C263.518 45.2129 264.026 45.4033 264.505 45.4033H264.607V47Z" fill="#0C3139"/>
<path d="M111.56 60.768H108.536V72H106.424V60.768H104.336V59.784L106.424 59.064V58.32C106.424 57.216 106.576 56.32 106.88 55.632C107.2 54.944 107.656 54.44 108.248 54.12C108.84 53.8 109.552 53.64 110.384 53.64C110.88 53.64 111.328 53.688 111.728 53.784C112.144 53.864 112.504 53.96 112.808 54.072L112.256 55.728C112 55.648 111.712 55.568 111.392 55.488C111.088 55.408 110.768 55.368 110.432 55.368C109.792 55.368 109.312 55.608 108.992 56.088C108.688 56.552 108.536 57.288 108.536 58.296V59.136H111.56V60.768ZM121.956 58.92C123.428 58.92 124.524 59.264 125.244 59.952C125.98 60.64 126.348 61.736 126.348 63.24V72H124.836L124.428 70.176H124.332C123.98 70.64 123.62 71.032 123.252 71.352C122.9 71.656 122.484 71.88 122.004 72.024C121.54 72.168 120.964 72.24 120.276 72.24C119.556 72.24 118.908 72.104 118.332 71.832C117.756 71.56 117.3 71.144 116.964 70.584C116.628 70.008 116.46 69.288 116.46 68.424C116.46 67.144 116.932 66.16 117.876 65.472C118.82 64.768 120.276 64.384 122.244 64.32L124.284 64.248V63.48C124.284 62.408 124.068 61.664 123.636 61.248C123.22 60.832 122.62 60.624 121.836 60.624C121.212 60.624 120.612 60.728 120.036 60.936C119.476 61.128 118.94 61.352 118.428 61.608L117.78 60.024C118.324 59.72 118.956 59.464 119.676 59.256C120.396 59.032 121.156 58.92 121.956 58.92ZM122.532 65.784C121.06 65.848 120.036 66.104 119.46 66.552C118.9 67 118.62 67.632 118.62 68.448C118.62 69.168 118.82 69.696 119.22 70.032C119.62 70.368 120.14 70.536 120.78 70.536C121.772 70.536 122.604 70.24 123.276 69.648C123.948 69.04 124.284 68.112 124.284 66.864V65.712L122.532 65.784ZM139.41 58.896C139.634 58.896 139.874 58.912 140.13 58.944C140.386 58.96 140.61 58.992 140.802 59.04L140.562 60.984C140.37 60.936 140.154 60.896 139.914 60.864C139.69 60.832 139.474 60.816 139.266 60.816C138.802 60.816 138.362 60.92 137.946 61.128C137.53 61.336 137.154 61.632 136.818 62.016C136.498 62.384 136.242 62.832 136.05 63.36C135.858 63.888 135.762 64.48 135.762 65.136V72H133.674V59.136H135.378L135.618 61.488H135.714C135.97 61.008 136.274 60.576 136.626 60.192C136.994 59.792 137.41 59.48 137.874 59.256C138.338 59.016 138.85 58.896 139.41 58.896ZM160.017 58.896C161.393 58.896 162.417 59.272 163.089 60.024C163.761 60.76 164.097 61.96 164.097 63.624V72H162.033V63.72C162.033 62.712 161.833 61.952 161.433 61.44C161.049 60.928 160.441 60.672 159.609 60.672C158.457 60.672 157.633 61.032 157.137 61.752C156.657 62.472 156.417 63.52 156.417 64.896V72H154.329V63.72C154.329 63.048 154.241 62.488 154.065 62.04C153.889 61.576 153.625 61.232 153.273 61.008C152.921 60.784 152.465 60.672 151.905 60.672C151.105 60.672 150.473 60.856 150.009 61.224C149.545 61.576 149.217 62.096 149.025 62.784C148.833 63.472 148.737 64.32 148.737 65.328V72H146.649V59.136H148.329L148.641 60.888H148.761C149.017 60.44 149.329 60.072 149.697 59.784C150.065 59.48 150.473 59.256 150.921 59.112C151.369 58.968 151.833 58.896 152.313 58.896C153.241 58.896 154.017 59.072 154.641 59.424C155.265 59.776 155.721 60.32 156.009 61.056H156.153C156.553 60.32 157.097 59.776 157.785 59.424C158.489 59.072 159.233 58.896 160.017 58.896ZM185.505 58.92C186.977 58.92 188.073 59.264 188.793 59.952C189.529 60.64 189.897 61.736 189.897 63.24V72H188.385L187.977 70.176H187.881C187.529 70.64 187.169 71.032 186.801 71.352C186.449 71.656 186.033 71.88 185.553 72.024C185.089 72.168 184.513 72.24 183.825 72.24C183.105 72.24 182.457 72.104 181.881 71.832C181.305 71.56 180.849 71.144 180.513 70.584C180.177 70.008 180.009 69.288 180.009 68.424C180.009 67.144 180.481 66.16 181.425 65.472C182.369 64.768 183.825 64.384 185.793 64.32L187.833 64.248V63.48C187.833 62.408 187.617 61.664 187.185 61.248C186.769 60.832 186.169 60.624 185.385 60.624C184.761 60.624 184.161 60.728 183.585 60.936C183.025 61.128 182.489 61.352 181.977 61.608L181.329 60.024C181.873 59.72 182.505 59.464 183.225 59.256C183.945 59.032 184.705 58.92 185.505 58.92ZM186.081 65.784C184.609 65.848 183.585 66.104 183.009 66.552C182.449 67 182.169 67.632 182.169 68.448C182.169 69.168 182.369 69.696 182.769 70.032C183.169 70.368 183.689 70.536 184.329 70.536C185.321 70.536 186.153 70.24 186.825 69.648C187.497 69.04 187.833 68.112 187.833 66.864V65.712L186.081 65.784ZM201.495 72.24C200.007 72.24 198.807 71.688 197.895 70.584C196.999 69.464 196.551 67.8 196.551 65.592C196.551 63.384 197.007 61.72 197.919 60.6C198.831 59.464 200.031 58.896 201.519 58.896C202.143 58.896 202.687 58.984 203.151 59.16C203.615 59.32 204.015 59.544 204.351 59.832C204.703 60.12 204.999 60.44 205.239 60.792H205.383C205.367 60.584 205.335 60.28 205.287 59.88C205.255 59.464 205.239 59.136 205.239 58.896V53.76H207.327V72H205.647L205.335 70.272H205.239C204.999 70.64 204.703 70.976 204.351 71.28C204.015 71.568 203.607 71.8 203.127 71.976C202.663 72.152 202.119 72.24 201.495 72.24ZM201.879 70.488C203.127 70.488 203.999 70.12 204.495 69.384C205.007 68.632 205.263 67.504 205.263 66V65.616C205.263 64.016 205.023 62.792 204.543 61.944C204.063 61.08 203.167 60.648 201.855 60.648C200.799 60.648 200.007 61.104 199.479 62.016C198.967 62.912 198.711 64.12 198.711 65.64C198.711 67.176 198.967 68.368 199.479 69.216C200.007 70.064 200.807 70.488 201.879 70.488ZM217.409 72L212.825 59.136H215.057L217.601 66.72C217.729 67.072 217.857 67.464 217.985 67.896C218.113 68.328 218.225 68.744 218.321 69.144C218.433 69.528 218.505 69.856 218.537 70.128H218.633C218.681 69.856 218.761 69.52 218.873 69.12C218.985 68.72 219.105 68.304 219.233 67.872C219.377 67.44 219.505 67.056 219.617 66.72L222.161 59.136H224.393L219.785 72H217.409ZM232.011 59.136V72H229.923V59.136H232.011ZM230.979 54.312C231.299 54.312 231.579 54.424 231.819 54.648C232.059 54.856 232.179 55.192 232.179 55.656C232.179 56.104 232.059 56.44 231.819 56.664C231.579 56.888 231.299 57 230.979 57C230.643 57 230.355 56.888 230.115 56.664C229.875 56.44 229.755 56.104 229.755 55.656C229.755 55.192 229.875 54.856 230.115 54.648C230.355 54.424 230.643 54.312 230.979 54.312ZM244.277 72.24C243.189 72.24 242.229 72.008 241.397 71.544C240.565 71.08 239.909 70.36 239.429 69.384C238.965 68.408 238.733 67.16 238.733 65.64C238.733 64.056 238.981 62.768 239.477 61.776C239.973 60.784 240.645 60.056 241.493 59.592C242.357 59.128 243.333 58.896 244.421 58.896C245.045 58.896 245.645 58.968 246.221 59.112C246.813 59.24 247.293 59.4 247.661 59.592L247.013 61.344C246.645 61.2 246.213 61.064 245.717 60.936C245.237 60.808 244.789 60.744 244.373 60.744C243.589 60.744 242.941 60.928 242.429 61.296C241.917 61.664 241.533 62.208 241.277 62.928C241.021 63.648 240.893 64.544 240.893 65.616C240.893 66.64 241.021 67.512 241.277 68.232C241.533 68.952 241.909 69.496 242.405 69.864C242.917 70.232 243.541 70.416 244.277 70.416C244.933 70.416 245.517 70.344 246.029 70.2C246.541 70.056 247.013 69.88 247.445 69.672V71.544C247.029 71.768 246.573 71.936 246.077 72.048C245.581 72.176 244.981 72.24 244.277 72.24ZM258.608 58.896C259.648 58.896 260.544 59.136 261.296 59.616C262.048 60.096 262.624 60.776 263.024 61.656C263.44 62.52 263.648 63.536 263.648 64.704V65.976H255.392C255.424 67.432 255.768 68.544 256.424 69.312C257.08 70.064 258 70.44 259.184 70.44C259.952 70.44 260.632 70.368 261.224 70.224C261.832 70.064 262.456 69.84 263.096 69.552V71.4C262.472 71.688 261.856 71.896 261.248 72.024C260.656 72.168 259.936 72.24 259.088 72.24C257.936 72.24 256.92 71.992 256.04 71.496C255.16 71 254.472 70.264 253.976 69.288C253.48 68.296 253.232 67.088 253.232 65.664C253.232 64.256 253.456 63.048 253.904 62.04C254.352 61.032 254.976 60.256 255.776 59.712C256.592 59.168 257.536 58.896 258.608 58.896ZM258.608 60.624C257.68 60.624 256.944 60.952 256.4 61.608C255.856 62.248 255.536 63.144 255.44 64.296H261.488C261.488 63.56 261.384 62.92 261.176 62.376C260.968 61.832 260.648 61.408 260.216 61.104C259.8 60.784 259.264 60.624 258.608 60.624Z" fill="#007E65"/>
<path d="M62.8152 61.674C80.0381 61.674 94.0001 47.8678 94.0001 30.837C94.0001 13.8062 80.0381 0 62.8152 0C45.5923 0 31.6304 13.8062 31.6304 30.837C31.6304 47.8678 45.5923 61.674 62.8152 61.674Z" fill="#EBEBEB"/>
<path fill-rule="evenodd" clip-rule="evenodd" d="M1.68909 100L3.55553 96.2487L0 96.8764L19.5011 73.5994L7.03269 77.5902L9.70195 73.6985L7.16119 73.1969C7.16119 73.1969 21.0958 56.2456 25.8666 52.956C33.9497 47.383 51.5627 38.9102 51.5627 38.9102L54.8707 26.3239L54.7132 22.9016L56.8285 25.7928C56.8285 25.7928 58.8229 27.764 60.9776 27.2448C60.4293 25.5813 57.702 17.6522 57.702 17.6522L59.2644 20.3178L62.5044 26.9379L58.6875 13.1236L59.8252 13.511L63.2678 26.6309L60.7232 11.8957C60.7232 11.8957 61.8919 11.7459 62.7128 14.5538C63.7298 18.0329 64.4856 24.7383 65.049 26.3239C65.4299 27.3962 66.194 28.3706 66.5757 29.3937C66.9391 30.3681 67.3391 32.4636 67.3391 32.4636L79.2986 34.6125L64.2856 40.4452C64.2856 40.4452 60.9934 55.2798 54.1073 65.3108C47.7275 74.6045 41.4269 79.9438 35.2775 80.66C36.8419 85.1721 40.3666 95.3952 40.3666 95.3952L48.2548 96.0092L49.5271 98.7721L35.1222 98.7193L28.2244 80.6299L24.1986 80.4144L1.68909 100Z" fill="#0C3139"/>
<path fill-rule="evenodd" clip-rule="evenodd" d="M32.7791 82.9618L37.4158 95.5481Z" fill="white"/>
<path d="M32.7791 82.9618L37.4158 95.5481" stroke="white" stroke-width="0.5" stroke-miterlimit="1.5" stroke-linecap="square" stroke-linejoin="round"/>
<path fill-rule="evenodd" clip-rule="evenodd" d="M18.738 74.2133C18.738 74.2133 32.7594 69.883 39.5738 65.6258C44.4675 62.5685 56.6522 52.4175 56.6522 52.4175" fill="white"/>
<path d="M18.738 74.2133C18.738 74.2133 32.7594 69.883 39.5738 65.6258C44.4675 62.5685 56.6522 52.4175 56.6522 52.4175" stroke="white" stroke-width="0.00444444" stroke-miterlimit="1.5" stroke-linecap="round" stroke-linejoin="round"/>
<path d="M63.0132 33.0775C63.5754 33.0775 64.0311 32.5278 64.0311 31.8496C64.0311 31.1714 63.5754 30.6217 63.0132 30.6217C62.4511 30.6217 61.9954 31.1714 61.9954 31.8496C61.9954 32.5278 62.4511 33.0775 63.0132 33.0775Z" fill="white"/>
</svg>
